name rise44.9368peak50.754fall52.0217.mot
datacolumns 19
datarows 26
range 1.96332700000000 2.00499700000000
endheader
time	ground_force1_vx	ground_force1_vy	ground_force1_vz	ground_force1_px	ground_force1_py	ground_force1_pz	ground_force2_vx	ground_force2_vy	ground_force2_vz	ground_force2_px	ground_force2_py	ground_force2_pz	ground_torque1_x	ground_torque1_y	ground_torque1_z	ground_torque2_x	ground_torque2_y	ground_torque2_z	
1.96332700000000	-3.17159400000000	40.69160900000000	-4.58928700000000	0.36738800000000	0.00000000000000	0.10329200000000	-53.47347500000000	799.37341100000003	-64.67097000000000	0.16280400000000	0.00000000000000	-0.11036600000000	0.00000000000000	-4.06207700000000	0.00000000000000	0.00000000000000	-31.55938200000000	0.00000000000000	
1.96499400000000	-3.47275600000000	47.88639300000000	-5.11804400000000	0.37183600000000	0.00000000000000	0.10360300000000	-54.10955100000000	797.43596900000000	-64.41100600000000	0.16184100000000	0.00000000000000	-0.11032300000000	0.00000000000000	-4.56089500000000	0.00000000000000	0.00000000000000	-31.48397300000000	0.00000000000000	
1.96666800000000	-3.70801100000000	55.22073300000000	-5.58140400000000	0.37579200000000	0.00000000000000	0.10387600000000	-54.74287800000000	795.35520799999995	-64.12317299999999	0.16088100000000	0.00000000000000	-0.11027700000000	0.00000000000000	-5.00794800000000	0.00000000000000	0.00000000000000	-31.40219800000000	0.00000000000000	
1.96832600000000	-3.86682200000000	62.60341300000000	-5.96641200000000	0.37934800000000	0.00000000000000	0.10411700000000	-55.37304600000000	793.12879899999996	-63.80708500000000	0.15992400000000	0.00000000000000	-0.11022800000000	0.00000000000000	-5.39173300000000	0.00000000000000	0.00000000000000	-31.31402700000000	0.00000000000000	
1.96999700000000	-3.94204200000000	69.96394300000000	-6.26447300000000	0.38257400000000	0.00000000000000	0.10433100000000	-55.99962000000000	790.75447199999996	-63.46238700000000	0.15897000000000	0.00000000000000	-0.11017500000000	0.00000000000000	-5.70468900000000	0.00000000000000	0.00000000000000	-31.21943100000000	0.00000000000000	
1.97167100000000	-3.92991200000000	77.25490700000000	-6.47139300000000	0.38552600000000	0.00000000000000	0.10452200000000	-56.62214100000000	788.23001999999997	-63.08876100000000	0.15802000000000	0.00000000000000	-0.11011900000000	0.00000000000000	-5.94324700000000	0.00000000000000	0.00000000000000	-31.11839000000000	0.00000000000000	
1.97332900000000	-3.82979900000000	84.45201200000000	-6.58704800000000	0.38824900000000	0.00000000000000	0.10469300000000	-57.24012300000000	785.55330300000003	-62.68592600000000	0.15707600000000	0.00000000000000	-0.11005900000000	0.00000000000000	-6.10754300000000	0.00000000000000	0.00000000000000	-31.01088400000000	0.00000000000000	
1.97499200000000	-3.64372100000000	91.55223100000001	-6.61478100000000	0.39077900000000	0.00000000000000	0.10484700000000	-57.85305100000000	782.72225700000001	-62.25364000000000	0.15613600000000	0.00000000000000	-0.10999500000000	0.00000000000000	-6.20088000000000	0.00000000000000	0.00000000000000	-30.89689800000000	0.00000000000000	
1.97666500000000	-3.37574600000000	98.57051400000000	-6.56062100000000	0.39314600000000	0.00000000000000	0.10498700000000	-58.46038400000000	779.73489500000005	-61.79170200000000	0.15520400000000	0.00000000000000	-0.10992700000000	0.00000000000000	-6.22901500000000	0.00000000000000	0.00000000000000	-30.77641800000000	0.00000000000000	
1.97832600000000	-3.03133300000000	105.53559400000000	-6.43241800000000	0.39537200000000	0.00000000000000	0.10511300000000	-59.06155200000000	776.58931700000005	-61.29995800000000	0.15427800000000	0.00000000000000	-0.10985500000000	0.00000000000000	-6.19937200000000	0.00000000000000	0.00000000000000	-30.64943600000000	0.00000000000000	
1.97999400000000	-2.61667600000000	112.48539000000000	-6.23899000000000	0.39747900000000	0.00000000000000	0.10522800000000	-59.65595500000000	773.28371000000004	-60.77829500000000	0.15336100000000	0.00000000000000	-0.10977800000000	0.00000000000000	-6.12025200000000	0.00000000000000	0.00000000000000	-30.51594500000000	0.00000000000000	
1.98166600000000	-2.13811400000000	119.46245700000000	-5.98932600000000	0.39948200000000	0.00000000000000	0.10533300000000	-60.24296600000000	769.81636100000003	-60.22665100000000	0.15245200000000	0.00000000000000	-0.10969800000000	0.00000000000000	-6.00010900000000	0.00000000000000	0.00000000000000	-30.37594000000000	0.00000000000000	
1.98333600000000	-1.60163500000000	126.50983600000001	-5.69193200000000	0.40139400000000	0.00000000000000	0.10542800000000	-60.82192400000000	766.18565599999999	-59.64501200000000	0.15155400000000	0.00000000000000	-0.10961300000000	0.00000000000000	-5.84693300000000	0.00000000000000	0.00000000000000	-30.22942000000000	0.00000000000000	
1.98499600000000	-1.01249800000000	133.66755900000001	-5.35431500000000	0.40322800000000	0.00000000000000	0.10551500000000	-61.39214200000000	762.39008899999999	-59.03341500000000	0.15066600000000	0.00000000000000	-0.10952400000000	0.00000000000000	-5.66777500000000	0.00000000000000	0.00000000000000	-30.07638300000000	0.00000000000000	
1.98666000000000	-0.37498500000000	140.96996600000000	-4.98264300000000	0.40499300000000	0.00000000000000	0.10559400000000	-61.95289900000000	758.42826800000000	-58.39195000000000	0.14979000000000	0.00000000000000	-0.10943000000000	0.00000000000000	-5.46843000000000	0.00000000000000	0.00000000000000	-29.91683200000000	0.00000000000000	
1.98832600000000	0.30771900000000	148.44389699999999	-4.58156700000000	0.40669600000000	0.00000000000000	0.10566600000000	-62.50344500000000	754.29891599999996	-57.72076200000000	0.14892600000000	0.00000000000000	-0.10933100000000	0.00000000000000	-5.25326200000000	0.00000000000000	0.00000000000000	-29.75076900000000	0.00000000000000	
1.98999900000000	1.03354300000000	156.10773599999999	-4.15418800000000	0.40834400000000	0.00000000000000	0.10573200000000	-63.04299900000000	750.00088500000004	-57.02005300000000	0.14807500000000	0.00000000000000	-0.10922800000000	0.00000000000000	-5.02517300000000	0.00000000000000	0.00000000000000	-29.57819700000000	0.00000000000000	
1.99166100000000	1.80144400000000	163.97123099999999	-3.70215200000000	0.40994300000000	0.00000000000000	0.10579200000000	-63.57074700000000	745.53315299999997	-56.29008000000000	0.14723900000000	0.00000000000000	-0.10911900000000	0.00000000000000	-4.78568600000000	0.00000000000000	0.00000000000000	-29.39912200000000	0.00000000000000	
1.99332600000000	2.61125500000000	172.03595200000001	-3.22583800000000	0.41149700000000	0.00000000000000	0.10584600000000	-64.08584900000000	740.89483299999995	-55.53116200000000	0.14641900000000	0.00000000000000	-0.10900600000000	0.00000000000000	-4.53511200000000	0.00000000000000	0.00000000000000	-29.21354800000000	0.00000000000000	
1.99499500000000	3.46348900000000	180.29624100000001	-2.72460800000000	0.41301100000000	0.00000000000000	0.10589500000000	-64.58743000000000	736.08518000000004	-54.74367700000000	0.14561400000000	0.00000000000000	-0.10888700000000	0.00000000000000	-4.27278200000000	0.00000000000000	0.00000000000000	-29.02148100000000	0.00000000000000	
1.99666000000000	4.35911600000000	188.74050000000000	-2.19709000000000	0.41448700000000	0.00000000000000	0.10594000000000	-65.07458699999999	731.10359500000004	-53.92806100000000	0.14482700000000	0.00000000000000	-0.10876400000000	0.00000000000000	-3.99730600000000	0.00000000000000	0.00000000000000	-28.82292500000000	0.00000000000000	
1.99833300000000	5.29933800000000	197.35263699999999	-1.64147000000000	0.41592900000000	0.00000000000000	0.10598000000000	-65.54638700000000	725.94963099999995	-53.08481600000000	0.14405700000000	0.00000000000000	-0.10863500000000	0.00000000000000	-3.70684400000000	0.00000000000000	0.00000000000000	-28.61788600000000	0.00000000000000	
1.99999700000000	6.28538500000000	206.11356100000000	-1.05576000000000	0.41733700000000	0.00000000000000	0.10601500000000	-66.00187000000000	720.62300000000005	-52.21450400000000	0.14330600000000	0.00000000000000	-0.10850000000000	0.00000000000000	-3.39935800000000	0.00000000000000	0.00000000000000	-28.40636700000000	0.00000000000000	
2.00166200000000	7.31832800000000	215.00258900000000	-0.43804200000000	0.41871500000000	0.00000000000000	0.10604700000000	-66.44004600000000	715.12357799999995	-51.31774800000000	0.14257600000000	0.00000000000000	-0.10836000000000	0.00000000000000	-3.07283200000000	0.00000000000000	0.00000000000000	-28.18837200000000	0.00000000000000	
2.00332800000000	8.39893400000000	223.99868400000000	0.21334100000000	0.42006300000000	0.00000000000000	0.10607500000000	-66.85989800000000	709.45141500000000	-50.39523600000000	0.14186500000000	0.00000000000000	-0.10821500000000	0.00000000000000	-2.72545700000000	0.00000000000000	0.00000000000000	-27.96390300000000	0.00000000000000	
2.00499700000000	9.52756200000000	233.08146700000000	0.89964400000000	0.42138300000000	0.00000000000000	0.10610000000000	-67.26038600000000	703.60673799999995	-49.44771500000000	0.14117600000000	0.00000000000000	-0.10806400000000	0.00000000000000	-2.35576400000000	0.00000000000000	0.00000000000000	-27.73295900000000	0.00000000000000	
